HIERARCHY
ROOT Hips
{
 OFFSET 0.000000 0.000000 0.000000
 CHANNELS 6 Xposition Yposition Zposition Yrotation Xrotation Zrotation
 JOINT Chest
 {
  OFFSET 0.000000 9.585900 0.002600
  CHANNELS 3 Yrotation Xrotation Zrotation
  JOINT Chest2
  {
   OFFSET 0.000000 9.601200 -0.005300
   CHANNELS 3 Yrotation Xrotation Zrotation
   JOINT Chest3
   {
    OFFSET 0.000000 9.561800 0.000000
    CHANNELS 3 Yrotation Xrotation Zrotation
    JOINT Chest4
    {
     OFFSET 0.000000 9.552100 0.000000
     CHANNELS 3 Yrotation Xrotation Zrotation
     JOINT Neck
     {
      OFFSET 0.000000 14.453000 0.000000
      CHANNELS 3 Yrotation Xrotation Zrotation
      JOINT Head
      {
       OFFSET 0.000000 8.936500 -0.011300
       CHANNELS 3 Yrotation Xrotation Zrotation
       End Site
       {
        OFFSET 0.000000 17.073600 -0.006000
       }
      }
     }
     JOINT RightCollar
     {
      OFFSET -2.921100 9.558500 0.000000
      CHANNELS 3 Yrotation Xrotation Zrotation
      JOINT RightShoulder
      {
       OFFSET -13.519700 0.000000 0.000000
       CHANNELS 3 Yrotation Xrotation Zrotation
       JOINT RightElbow
       {
        OFFSET 0.000000 -29.696600 0.000000
        CHANNELS 3 Yrotation Xrotation Zrotation
        JOINT RightWrist
        {
         OFFSET 0.000000 -24.004700 0.000000
         CHANNELS 3 Yrotation Xrotation Zrotation
         End Site
         {
          OFFSET 0.000000 -17.728500 0.000000
         }
        }
       }
      }
     }
     JOINT LeftCollar
     {
      OFFSET 2.921100 9.558500 0.000000
      CHANNELS 3 Yrotation Xrotation Zrotation
      JOINT LeftShoulder
      {
       OFFSET 13.519700 0.000000 0.000000
       CHANNELS 3 Yrotation Xrotation Zrotation
       JOINT LeftElbow
       {
        OFFSET 0.000000 -29.696600 0.000000
        CHANNELS 3 Yrotation Xrotation Zrotation
        JOINT LeftWrist
        {
         OFFSET 0.000000 -24.004700 0.000000
         CHANNELS 3 Yrotation Xrotation Zrotation
         End Site
         {
          OFFSET 0.000000 -17.728500 0.000000
         }
        }
       }
      }
     }
    }
   }
  }
 }
 JOINT RightHip
 {
  OFFSET -7.771700 -0.012900 -0.001300
  CHANNELS 3 Yrotation Xrotation Zrotation
  JOINT RightKnee
  {
   OFFSET 0.000000 -40.869800 0.001200
   CHANNELS 3 Yrotation Xrotation Zrotation
   JOINT RightAnkle
   {
    OFFSET 0.000000 -39.717900 0.002100
    CHANNELS 3 Yrotation Xrotation Zrotation
    JOINT RightToe
    {
     OFFSET 0.000000 -4.965400 11.033500
     CHANNELS 3 Yrotation Xrotation Zrotation
     End Site
     {
      OFFSET 0.000000 -1.423100 5.872300
     }
    }
   }
  }
 }
 JOINT LeftHip
 {
  OFFSET 7.771700 -0.012900 -0.001300
  CHANNELS 3 Yrotation Xrotation Zrotation
  JOINT LeftKnee
  {
   OFFSET 0.000000 -40.869800 0.001200
   CHANNELS 3 Yrotation Xrotation Zrotation
   JOINT LeftAnkle
   {
    OFFSET 0.000000 -39.717900 0.002100
    CHANNELS 3 Yrotation Xrotation Zrotation
    JOINT LeftToe
    {
     OFFSET 0.000000 -4.965400 11.033500
     CHANNELS 3 Yrotation Xrotation Zrotation
     End Site
     {
      OFFSET 0.000000 -1.423100 5.872300
     }
    }
   }
  }
 }
}
MOTION
Frames: 16
Frame Time: 0.008333
-15.522461 58.028729 49.485095 178.862706 -42.425363 -1.237353 2.749923 24.059509 4.905849 0.321191 3.810358 0.527017 0.499704 6.135147 0.869711 2.131090 20.286285 3.184216 -0.794006 14.416647 -2.245523 -0.647123 -8.984918 -3.861512 -0.049542 -0.266504 -0.933418 0.026848 -16.164379 -9.699171 171.276490 -39.271601 -158.699462 16.503016 -16.317352 -48.806779 -1.964970 1.877129 1.638576 23.958811 -5.949168 -1.887113 -165.513184 -35.685852 156.093787 -5.344423 -14.585423 31.773809 7.968828 -29.014869 -6.863552 -0.589707 66.376245 0.193156 5.688899 10.381923 7.480814 -0.023722 0.156419 -0.063971 -7.411706 -35.145446 -0.971599 25.044398 62.263744 21.182133 -7.011522 35.644128 3.778690 0.348741 -19.526367 -5.284987
-15.513221 58.036280 49.483954 178.852707 -42.440847 -1.281729 2.793992 24.061249 4.962745 0.318952 3.809245 0.527978 0.505772 6.133203 0.867233 2.139995 20.283199 3.183463 -0.809160 14.421975 -2.243595 -0.673846 -8.981709 -3.857242 -0.050162 -0.268673 -0.935910 0.040804 -16.166266 -9.712029 171.307725 -39.265159 -158.684420 16.518732 -16.282782 -48.826027 -1.972569 1.876683 1.653987 23.927614 -5.946863 -1.899618 -165.505133 -35.700274 156.072787 -5.335211 -14.575999 31.763821 7.909761 -28.990088 -6.796143 -0.571616 66.346563 0.212560 5.689724 10.388885 7.467008 -0.035043 0.151852 -0.054844 -7.423133 -35.116853 -0.897582 25.118309 62.258562 21.217462 -6.957483 35.631723 3.899770 0.302583 -19.521793 -5.322355
-15.512054 58.042195 49.483840 178.849568 -42.447376 -1.285059 2.812298 24.047818 4.967881 0.312504 3.820427 0.530534 0.510477 6.128296 0.868512 2.147300 20.283398 3.182089 -0.820238 14.424367 -2.248796 -0.699244 -8.977516 -3.853555 -0.039463 -0.273661 -0.945378 0.047801 -16.170756 -9.723184 171.323983 -39.278425 -158.691893 16.518722 -16.280463 -48.823164 -1.975696 1.872217 1.659173 23.894665 -5.942141 -1.906790 -165.487882 -35.712424 156.050105 -5.350392 -14.579042 31.767028 7.876451 -28.974377 -6.790835 -0.528541 66.331677 0.255114 5.685388 10.384837 7.459775 -0.029273 0.157947 -0.064283 -7.419262 -35.106078 -0.883839 25.182278 62.255281 21.246571 -6.904081 35.613049 3.984115 0.275334 -19.503725 -5.342482
-15.511325 58.047150 49.484312 178.848318 -42.451879 -1.291390 2.818605 24.049860 4.975103 0.312932 3.820252 0.530416 0.519514 6.121384 0.861629 2.172966 20.271881 3.169720 -0.840982 14.435585 -2.232441 -0.717372 -8.976736 -3.850982 -0.041088 -0.271847 -0.934188 0.052153 -16.175856 -9.730622 171.344662 -39.291867 -158.700503 16.520412 -16.276798 -48.821307 -1.987607 1.875951 1.685064 23.860338 -5.934572 -1.913461 -165.474444 -35.724777 156.029045 -5.347479 -14.582196 31.766199 7.827851 -28.963449 -6.781129 -0.466863 66.317172 0.308376 5.686069 10.382339 7.444922 -0.027725 0.162875 -0.068046 -7.409589 -35.090740 -0.860516 25.166271 62.254763 21.213821 -6.912778 35.589041 3.990965 0.284985 -19.476664 -5.333716
-15.513163 58.051203 49.485178 178.843309 -42.456392 -1.285620 2.830155 24.043466 4.972020 0.314654 3.819949 0.529999 0.522084 6.120830 0.860902 2.177140 20.277131 3.164541 -0.848030 14.435370 -2.233999 -0.740289 -8.981975 -3.871493 -0.022060 -0.283383 -0.936826 0.055803 -16.181662 -9.738820 171.366359 -39.303741 -158.711536 16.530496 -16.260497 -48.824345 -1.975428 1.852970 1.681160 23.824637 -5.919732 -1.897752 -165.474530 -35.739121 156.020401 -5.349710 -14.580668 31.768978 7.809894 -28.952028 -6.795004 -0.425645 66.306250 0.359476 5.690891 10.379552 7.430562 -0.027621 0.163325 -0.064399 -7.381202 -35.068088 -0.830092 25.150420 62.253427 21.150153 -6.922946 35.531279 4.012343 0.275662 -19.420702 -5.300434
-15.516952 58.054693 49.486146 178.836680 -42.464082 -1.273552 2.849434 24.041134 4.953685 0.306678 3.824077 0.537135 0.524395 6.120337 0.860146 2.182743 20.280500 3.167420 -0.851979 14.433935 -2.239701 -0.750135 -8.986597 -3.872362 0.014168 -0.308137 -0.956078 0.043358 -16.177703 -9.735297 171.386607 -39.315420 -158.726170 16.554447 -16.228580 -48.840333 -1.972513 1.842198 1.680506 23.809009 -5.915773 -1.884730 -165.484563 -35.750404 156.024804 -5.344597 -14.587075 31.770375 7.813712 -28.937507 -6.824489 -0.389926 66.298888 0.419162 5.693905 10.377174 7.416667 -0.026495 0.161547 -0.060867 -7.359052 -35.053762 -0.822887 25.179330 62.247784 21.134926 -6.898798 35.514389 4.087157 0.248474 -19.405656 -5.308152
-15.521105 58.057059 49.488085 178.840703 -42.468375 -1.272767 2.856685 24.039772 4.947337 0.306596 3.825808 0.536237 0.526493 6.121789 0.859435 2.178680 20.281675 3.175806 -0.852886 14.433293 -2.244733 -0.755054 -8.991223 -3.878995 0.038443 -0.324076 -0.976616 0.040502 -16.177436 -9.733336 171.390705 -39.328675 -158.739529 16.534139 -16.244253 -48.817036 -1.969012 1.833879 1.673803 23.802661 -5.908854 -1.893771 -165.476853 -35.744412 156.002635 -5.329121 -14.581869 31.781218 7.829559 -28.925125 -6.861949 -0.361992 66.290900 0.491044 5.694420 10.378667 7.401415 -0.024856 0.157255 -0.057433 -7.345396 -35.044141 -0.813749 25.187088 62.241160 21.114677 -6.903441 35.508307 4.118666 0.252134 -19.387799 -5.307093
-15.525537 58.059953 49.489353 178.864850 -42.482092 -1.288675 2.845742 24.050814 4.946570 0.311198 3.824797 0.532594 0.527915 6.124491 0.858984 2.182877 20.285398 3.174417 -0.858320 14.429657 -2.237831 -0.758181 -8.992875 -3.874890 0.042739 -0.335782 -0.976420 0.031437 -16.174612 -9.725160 171.405937 -39.326545 -158.742091 16.536668 -16.259706 -48.808747 -1.969203 1.818950 1.679295 23.802255 -5.896859 -1.901343 -165.498123 -35.744548 155.999342 -5.330800 -14.587755 31.790461 7.847088 -28.899804 -6.900565 -0.354873 66.282961 0.554838 5.696647 10.381335 7.388689 -0.030315 0.149715 -0.053585 -7.353604 -35.027069 -0.809632 25.198594 62.234405 21.107296 -6.897197 35.502527 4.140937 0.246710 -19.369375 -5.302755
-15.528753 58.061423 49.492341 178.871024 -42.486095 -1.302729 2.853432 24.051460 4.956865 0.319407 3.824364 0.528624 0.554014 6.122902 0.848238 2.169489 20.292766 3.188418 -0.861224 14.423553 -2.250876 -0.779318 -8.999314 -3.860164 0.030926 -0.343827 -0.964056 0.071518 -16.183831 -9.754910 171.431369 -39.306721 -158.731453 16.559006 -16.220963 -48.840388 -1.970635 1.800827 1.683742 23.806912 -5.884785 -1.902894 -165.521441 -35.746743 155.993789 -5.329013 -14.584217 31.817417 7.942268 -28.881481 -6.973114 -0.378088 66.272198 0.661867 5.700188 10.394161 7.365802 -0.034176 0.138535 -0.050322 -7.356299 -35.019908 -0.793693 25.185815 62.233547 21.090077 -6.903416 35.491261 4.127124 0.264919 -19.336427 -5.290054
-15.532275 58.062896 49.495581 178.879488 -42.490340 -1.316887 2.882779 24.041859 4.967211 0.311296 3.828873 0.533155 0.560729 6.124888 0.844494 2.178442 20.294052 3.190842 -0.877835 14.422619 -2.237451 -0.794410 -9.006393 -3.866774 0.024748 -0.350113 -0.959588 0.082456 -16.188275 -9.757340 171.421627 -39.305275 -158.723067 16.544966 -16.253714 -48.823318 -1.984995 1.793663 1.693958 23.811061 -5.881333 -1.903739 -165.541550 -35.751994 155.997202 -5.338843 -14.586463 31.817511 7.972080 -28.870143 -6.995464 -0.399535 66.262921 0.690866 5.703806 10.403734 7.358519 -0.031469 0.126751 -0.039443 -7.352131 -35.012013 -0.777866 25.186879 62.227642 21.080500 -6.914926 35.487790 4.121821 0.264390 -19.317405 -5.268523
-15.537371 58.065308 49.498086 178.879749 -42.501380 -1.313937 2.892859 24.048633 4.964106 0.349157 3.821941 0.514669 0.542990 6.132065 0.856567 2.194524 20.292895 3.189547 -0.889892 14.420115 -2.232108 -0.819114 -9.011488 -3.852009 0.034278 -0.368116 -0.979520 0.072901 -16.185138 -9.739760 171.406067 -39.315150 -158.725083 16.543424 -16.258396 -48.819833 -2.011717 1.791710 1.719170 23.820009 -5.879556 -1.913532 -165.553504 -35.756960 156.016944 -5.344033 -14.587760 31.810755 8.016206 -28.852407 -7.027751 -0.376430 66.256144 0.752014 5.701438 10.415075 7.362064 -0.040997 0.117003 -0.038376 -7.312115 -34.988848 -0.775897 25.166615 62.209587 21.054620 -6.981593 35.486843 4.096450 0.298928 -19.294720 -5.246331
-15.540096 58.067787 49.501039 178.875844 -42.509479 -1.318281 2.923891 24.048277 4.970467 0.349025 3.824444 0.513926 0.547216 6.134040 0.855949 2.245817 20.295600 3.169255 -0.923401 14.412440 -2.195652 -0.852109 -9.022785 -3.845953 -0.006942 -0.383144 -0.940710 0.048066 -16.178129 -9.720980 171.415249 -39.304051 -158.704628 16.537317 -16.250003 -48.816302 -2.067023 1.783758 1.774876 23.818874 -5.879461 -1.922823 -165.548854 -35.753538 156.000793 -5.347332 -14.587045 31.836923 8.056268 -28.838527 -7.040908 -0.388697 66.247019 0.774897 5.701089 10.427154 7.363447 -0.043697 0.109473 -0.034861 -7.297356 -34.973612 -0.768056 25.153262 62.200734 21.042278 -7.005899 35.482424 4.085484 0.311088 -19.282635 -5.237676
-15.541100 58.071189 49.503364 178.883708 -42.521961 -1.335307 2.965356 24.046591 4.977312 0.332460 3.830134 0.526225 0.550710 6.135939 0.855366 2.257036 20.297825 3.168090 -0.934286 14.411077 -2.194743 -0.869171 -9.026806 -3.824155 -0.010007 -0.394151 -0.935467 0.039927 -16.175675 -9.723573 171.421646 -39.304929 -158.699583 16.525072 -16.245803 -48.807394 -2.082975 1.777095 1.784542 23.836329 -5.874964 -1.933644 -165.558168 -35.745293 155.988660 -5.349995 -14.589795 31.847457 8.060251 -28.821202 -7.025626 -0.400593 66.236821 0.767784 5.696982 10.437444 7.369643 -0.038138 0.103049 -0.029319 -7.302383 -34.956237 -0.755972 25.179134 62.188575 21.064527 -7.024567 35.482823 4.082570 0.313469 -19.269507 -5.232146
-15.549597 58.074016 49.506067 178.891963 -42.527505 -1.301871 2.963159 24.044465 4.933158 0.328918 3.833441 0.528410 0.558775 6.135956 0.851651 2.266576 20.300175 3.166508 -0.942338 14.410560 -2.190442 -0.891993 -9.031494 -3.813929 -0.014699 -0.402798 -0.930923 0.059417 -16.169156 -9.751256 171.413379 -39.315373 -158.731921 16.510894 -16.248341 -48.788801 -2.095768 1.772571 1.794007 23.833211 -5.876926 -1.925060 -165.564440 -35.741698 156.002161 -5.344740 -14.594199 31.881479 8.082334 -28.811218 -7.065294 -0.370971 66.241732 0.780241 5.682369 10.433846 7.384156 -0.034191 0.103200 -0.022054 -7.273311 -34.951480 -0.805699 25.233573 62.164390 21.114457 -7.113069 35.492351 4.027347 0.360553 -19.251096 -5.210002
-15.551255 58.078219 49.507512 178.909388 -42.542724 -1.309782 2.970466 24.048153 4.927699 0.314712 3.841750 0.536330 0.576662 6.131208 0.841067 2.275712 20.302649 3.164227 -0.952252 14.412721 -2.184053 -0.908665 -9.031508 -3.802087 -0.022994 -0.409904 -0.926412 0.060100 -16.163059 -9.748839 171.409058 -39.321795 -158.736631 16.500210 -16.249491 -48.766113 -2.098846 1.764881 1.799884 23.825379 -5.870256 -1.917478 -165.572984 -35.739029 156.005393 -5.351201 -14.601232 31.892412 8.071391 -28.789443 -7.057625 -0.349580 66.235149 0.786337 5.674446 10.432965 7.392775 -0.034862 0.103180 -0.018041 -7.275961 -34.926841 -0.811328 25.228350 62.144588 21.108533 -7.141205 35.501793 4.007898 0.373525 -19.246790 -5.200298
-15.551510 58.082290 49.508833 178.918333 -42.556718 -1.315893 2.975011 24.055734 4.927336 0.326561 3.839455 0.531259 0.577387 6.130810 0.839341 2.283979 20.305157 3.161309 -0.952939 14.415443 -2.206535 -0.939231 -9.027864 -3.762636 -0.037625 -0.411119 -0.910452 0.071684 -16.163080 -9.758927 171.412424 -39.331877 -158.708010 16.508783 -16.238551 -48.781541 -2.116800 1.767590 1.825395 23.848015 -5.870440 -1.945869 -165.584211 -35.738755 155.994754 -5.361216 -14.606181 31.895337 8.052884 -28.771209 -7.019868 -0.359239 66.228271 0.727340 5.668792 10.428652 7.420059 -0.039344 0.104660 -0.013762 -7.284095 -34.906088 -0.810932 25.223239 62.131090 21.097318 -7.138919 35.515876 4.017421 0.375251 -19.250575 -5.206721
